Coordinates
version=1
nRows=14
nColumns=40
inDegrees=yes

Units are S.I. units (second, meters, Newtons, ...)
If the header above contains a line with 'inDegrees', this indicates whether rotational values are in degrees (yes) or radians (no).

endheader
time	pelvis_tilt	pelvis_list	pelvis_rotation	pelvis_tx	pelvis_ty	pelvis_tz	hip_flexion_r	hip_adduction_r	hip_rotation_r	knee_angle_r	knee_angle_r_beta	ankle_angle_r	subtalar_angle_r	mtp_angle_r	hip_flexion_l	hip_adduction_l	hip_rotation_l	knee_angle_l	knee_angle_l_beta	ankle_angle_l	subtalar_angle_l	mtp_angle_l	lumbar_extension	lumbar_bending	lumbar_rotation	arm_flex_r	arm_add_r	arm_rot_r	elbow_flex_r	pro_sup_r	wrist_flex_r	wrist_dev_r	arm_flex_l	arm_add_l	arm_rot_l	elbow_flex_l	pro_sup_l	wrist_flex_l	wrist_dev_l
     12.02500000	      4.47018182	      3.91177633	      4.71101524	     -0.33983003	      1.05721259	      0.03724009	     38.08727938	    -14.44487985	     -8.67200542	     44.27550075	      0.77275327	    -20.04326640	     -8.74986469	      0.00000000	     66.24297141	     -5.59408723	      5.36081501	    112.53528212	      1.96411120	     -9.20101976	      3.65539821	      0.00000000	    -68.89742912	     -0.13249665	     -3.04429904	     85.30958800	     -8.26582891	      2.27262067	     45.62857314	     88.44745600	      0.00000000	      0.00000000	     89.65882298	     -4.89766971	     11.58678772	     41.27398195	     84.40136373	      0.00000000	      0.00000000
     12.03333333	      4.66739326	      4.50123822	      4.63553814	     -0.33909607	      1.05780123	      0.03758546	     35.38422728	    -14.81259654	     -9.41731322	     41.81803437	      0.72986239	    -21.29219206	     -8.53400071	      0.00000000	     68.09661486	     -5.68284130	      4.73874906	    114.21181217	      1.99337217	     -7.78139194	      3.68972545	      0.00000000	    -69.17217717	     -0.69953955	     -3.53158480	     84.93129078	     -8.37605189	      1.72433250	     45.99606831	     88.45799696	      0.00000000	      0.00000000	     89.65498218	     -4.77639433	     11.80903935	     41.39945269	     84.41772360	      0.00000000	      0.00000000
     12.04166667	      4.69007198	      4.91670419	      4.59486495	     -0.33862608	      1.05859985	      0.03776963	     32.88524203	    -15.04695584	    -10.28508272	     39.47993852	      0.68905492	    -22.53939659	     -8.38781804	      0.00000000	     70.12683993	     -5.76974408	      4.22544825	    115.48800418	      2.01564592	     -5.80184114	      3.68488742	      0.00000000	    -69.32126142	     -1.12366333	     -3.89170445	     84.62913782	     -8.43757724	      1.15449506	     46.28247832	     88.46377869	      0.00000000	      0.00000000	     89.65930524	     -4.66872728	     11.91404893	     41.55429651	     84.45566724	      0.00000000	      0.00000000
     12.05000000	      4.37149428	      5.48729241	      4.45021716	     -0.33839497	      1.05893504	      0.03810205	     31.17740952	    -15.39809164	    -10.73976094	     37.75924559	      0.65902316	    -23.41634062	     -8.36083558	      0.00000000	     72.45894152	     -6.05308415	      3.31547323	    116.36822982	      2.03100876	     -5.72363384	      3.46314195	      0.00000000	    -69.14931416	     -1.75396402	     -4.35907681	     84.37713260	     -8.62095774	      0.97855224	     46.45461260	     88.44600932	      0.00000000	      0.00000000	     89.66607910	     -4.52565794	     11.96043067	     41.63060303	     84.38192923	      0.00000000	      0.00000000
     12.05833333	      4.11240760	      5.90875784	      4.29253896	     -0.33820612	      1.05968181	      0.03810855	     29.59880788	    -15.66015986	    -11.16450125	     36.46617293	      0.63645478	    -24.12419068	     -8.40701979	      0.00000000	     74.54896575	     -6.25753394	      2.46992284	    116.87595903	      2.03987030	     -5.03731058	      3.09780840	      0.00000000	    -69.06449050	     -2.23491161	     -4.70696902	     84.26789639	     -8.69703698	      0.79494543	     46.58849610	     88.45553758	      0.00000000	      0.00000000	     89.67635756	     -4.43877891	     11.96296362	     41.76168717	     84.35942850	      0.00000000	      0.00000000
     12.06666667	      4.07550764	      6.30527991	      4.47135973	     -0.33789615	      1.06116085	      0.03745639	     27.90823748	    -16.17054448	    -11.93161095	     35.67114786	      0.62257898	    -25.30749063	     -8.51997598	      0.00000000	     76.32026266	     -6.01033565	      1.77434128	    116.86960338	      2.03975937	     -4.78512834	      2.21466544	      0.00000000	    -69.23599279	     -2.33628211	     -5.13294440	     84.18237413	     -8.65769482	      0.25417735	     46.70494956	     88.47339489	      0.00000000	      0.00000000	     89.69233239	     -4.35487050	     11.99886308	     41.93171450	     84.47119089	      0.00000000	      0.00000000
     12.07500000	      3.69994494	      6.52728006	      4.35012936	     -0.33804768	      1.06229922	      0.03756270	     26.71065992	    -16.17097684	    -11.87596147	     34.94180677	      0.60984957	    -25.23253182	     -8.55498105	      0.00000000	     78.26337907	     -6.18680762	      1.14879516	    116.48378193	      2.03302552	     -4.50973116	      2.07771609	      0.00000000	    -69.08263906	     -2.67888959	     -5.30455533	     84.21812096	     -8.71609137	      0.18444551	     46.68975010	     88.43843690	      0.00000000	      0.00000000	     89.71917862	     -4.26500102	     11.92962103	     42.06674628	     84.38168233	      0.00000000	      0.00000000
     12.08333333	      3.02595164	      6.76000132	      4.39516391	     -0.33858067	      1.06297195	      0.03703718	     26.51087453	    -16.44698382	    -11.74527259	     35.31904468	      0.61643362	    -25.71806077	     -9.03356706	      0.00000000	     80.32418925	     -5.96888015	      0.43779782	    115.52750683	      2.01633537	     -4.86288881	      1.10025879	      0.00000000	    -68.64071190	     -2.85254254	     -5.58849728	     84.26270444	     -8.65802225	     -0.06792584	     46.72105706	     88.48369394	      0.00000000	      0.00000000	     89.73763575	     -4.18390177	     11.63302211	     42.19787882	     84.68636579	      0.00000000	      0.00000000
     12.09166667	      2.62507862	      6.88199229	      4.57161765	     -0.33912067	      1.06415528	      0.03622091	     26.17428912	    -16.67491503	    -11.54986318	     36.13627433	      0.63069697	    -25.48981136	     -9.42277592	      0.00000000	     81.72817941	     -5.63493896	     -0.02543551	    114.29133603	      1.99476012	     -4.08430902	      1.06633301	      0.00000000	    -68.46672984	     -2.77750903	     -5.81906440	     84.44760964	     -8.63314066	     -0.04852041	     46.56035512	     88.51455864	      0.00000000	      0.00000000	     89.75812570	     -4.16227572	     11.39037321	     42.36833818	     84.67268952	      0.00000000	      0.00000000
     12.10000000	      2.52054682	      6.65473159	      4.49718832	     -0.33963693	      1.06603553	      0.03582061	     25.65485860	    -16.48460018	    -11.46242218	     37.05160832	      0.64667256	    -25.39906782	     -9.46132913	      0.00000000	     82.39179340	     -5.62631613	     -0.15423386	    112.67660544	      1.96657775	     -3.91238492	      1.09647721	      0.00000000	    -68.58203914	     -2.68325047	     -5.60872722	     84.66351089	     -8.62956986	     -0.04332165	     46.68515393	     88.31748989	      0.00000000	      0.00000000	     89.78776851	     -4.19700129	     11.27082879	     42.58608690	     84.50706489	      0.00000000	      0.00000000
     12.10833333	      1.19622563	      7.44853220	      4.56464878	     -0.34131030	      1.06525778	      0.03475652	     27.84676535	    -17.54517475	    -10.01435994	     40.03517548	      0.69874563	    -24.72952185	    -10.93048528	      0.00000000	     83.85293440	     -5.05524302	     -1.36139985	    110.55213108	      1.92949868	     -4.09918148	      2.58928736	      0.00000000	    -67.51065306	     -3.11900550	     -6.43281708	     84.80106536	     -8.64571464	      0.20997596	     46.47758775	     88.48409650	      0.00000000	      0.00000000	     89.79874688	     -4.04962773	     10.65076372	     42.65190220	     85.10165379	      0.00000000	      0.00000000
     12.11666667	      0.60734453	      7.47509044	      4.53786252	     -0.34262292	      1.06584442	      0.03411248	     29.01948644	    -17.70709711	     -9.10535868	     42.68213718	      0.74494383	    -24.16525100	    -12.00085312	      0.00000000	     84.24821582	     -4.76647657	     -1.68481884	    108.11365511	      1.88693925	     -3.86725743	      2.48138807	      0.00000000	    -67.12182077	     -3.13038809	     -6.47467111	     85.04867789	     -8.62329388	      0.29286811	     46.43022962	     88.49590732	      0.00000000	      0.00000000	     89.81439820	     -4.03733080	     10.34076873	     42.84824292	     85.18312688	      0.00000000	      0.00000000
     12.12500000	      0.35703754	      7.07293213	      4.72845491	     -0.34390753	      1.06686159	      0.03331631	     29.81617075	    -17.55811396	     -8.68686723	     45.45563303	      0.79335046	    -23.26868756	    -12.73996446	      0.00000000	     84.02838620	     -4.32133061	     -1.44283249	    105.40902058	      1.83973447	     -3.65373389	      3.18070824	      0.00000000	    -67.01601999	     -2.64673721	     -6.20063370	     85.44317877	     -8.66213393	      0.75052334	     46.23931404	     88.54500721	      0.00000000	      0.00000000	     89.82672109	     -4.10335239	     10.11376978	     43.12950470	     84.26765442	      0.00000000	      0.00000000
     12.13333333	     -0.28773277	      7.01653830	      4.44758985	     -0.34556950	      1.06686201	      0.03312495	     31.81253477	    -17.50778729	     -7.31018796	     48.98735972	      0.85499072	    -22.54050671	    -13.70929468	      0.00000000	     83.72081137	     -4.21389731	     -1.63986808	    102.27542276	      1.78504287	     -3.19817062	      3.82842852	      0.00000000	    -66.51117475	     -2.81926754	     -6.03356389	     85.63940267	     -8.56812796	      0.55805202	     46.35614370	     88.48839634	      0.00000000	      0.00000000	     89.83285193	     -4.00596847	      9.57538639	     43.23816895	     85.41836908	      0.00000000	      0.00000000
